<svg xmlns="http://www.w3.org/2000/svg" viewBox="0 0 368.74 53.77"><path fill="#000" d="M108.56 41.99L98.3 41.99L98.3 33.53L108.56 33.53C111.59 33.53 113.11 35.48 113.11 37.8C113.11 40.11 111.95 41.99 108.56 41.99M98.3 16.41L107.11 16.41C110.51 16.41 111.38 18.14 111.38 20.31C111.38 22.4 110.22 24.14 107.11 24.14L98.3 24.14L98.3 16.41M117.23 28.33L117.23 28.18C120.84 26.23 122.94 22.62 122.94 18C122.94 10.77 118.31 5.56 109.06 5.56L86.59 5.56L86.59 52.83L110.94 52.83C120.41 52.83 125.11 47.34 125.11 39.89C125.11 34.33 122.22 30.14 117.23 28.33M134.51 0C130.61 0 127.58 3.04 127.58 6.94C127.58 10.84 130.61 13.88 134.51 13.88C138.42 13.88 141.45 10.84 141.45 6.94C141.45 3.04 138.42 0 134.51 0M129.09 17.13H139.93V52.83H129.09ZM163.36 26.31C166.97 26.31 169.79 28.18 171.02 31.15L182 31.15C180.49 22.33 173.26 16.19 163.36 16.19C152.09 16.19 144.14 24.14 144.14 34.98C144.14 45.82 152.09 53.77 163.36 53.77C173.26 53.77 180.49 47.62 182 38.81L171.02 38.81C169.79 41.77 166.97 43.65 163.36 43.65C158.44 43.65 155.12 40.11 155.12 34.98C155.12 29.85 158.44 26.31 163.36 26.31M191.48 0C187.58 0 184.54 3.04 184.54 6.94C184.54 10.84 187.58 13.88 191.48 13.88C195.38 13.88 198.42 10.84 198.42 6.94C198.42 3.04 195.38 0 191.48 0M186.06 17.13H196.9V52.83H186.06ZM220.33 26.31C223.94 26.31 226.76 28.18 227.99 31.15L238.97 31.15C237.45 22.33 230.23 16.19 220.33 16.19C209.05 16.19 201.1 24.14 201.1 34.98C201.1 45.82 209.05 53.77 220.33 53.77C230.23 53.77 237.45 47.62 238.97 38.81L227.99 38.81C226.76 41.77 223.94 43.65 220.33 43.65C215.41 43.65 212.09 40.11 212.09 34.98C212.09 29.85 215.41 26.31 220.33 26.31M243.03 1.52H253.87V52.83H243.03ZM285.17 31.15L269.56 31.15L269.56 31C270.72 27.61 273.54 25.87 277.3 25.87C281.05 25.87 283.94 27.61 285.17 31L285.17 31.15M277.3 16.19C266.02 16.19 258.07 24.14 258.07 34.98C258.07 45.82 266.02 53.77 277.3 53.77C286.18 53.77 292.98 48.85 295.29 41.48L284.09 41.48C282.72 43.43 280.4 44.08 277.3 44.08C273.25 44.08 270.29 42.06 269.35 38.16L269.35 38.01L296.3 38.01L296.3 34.98C296.3 24.14 288.57 16.19 277.3 16.19M318.43 38.74C318.43 42.49 316.69 43.65 314.31 43.65C311.92 43.65 310.19 42.49 310.19 38.74L310.19 26.88L327.1 26.88L327.1 17.13L310.19 17.13L310.19 5.64L299.35 5.64L299.35 38.74C299.35 48.93 305.42 53.77 314.31 53.77C323.2 53.77 329.27 48.93 329.27 38.74L329.27 37.65L318.43 37.65L318.43 38.74M349.66 43.65C344.74 43.65 341.42 40.11 341.42 34.98C341.42 29.85 344.74 26.31 349.66 26.31C354.57 26.31 357.9 29.85 357.9 34.98C357.9 40.11 354.57 43.65 349.66 43.65M349.66 16.19C338.38 16.19 330.43 24.14 330.43 34.98C330.43 48.2 339.97 53.77 347.56 53.77C352.84 53.77 356.88 51.17 358.62 47.26L358.76 47.26L358.76 52.83L368.74 52.83L368.74 35.34C368.74 23.63 360.93 16.19 349.66 16.19M66.32 10.11C62.96 4.42 56.83 1.77 49.6 1.77C42.94 1.77 37.78 4.18 34.62 8.69L34.45 8.69C31.29 4.18 26.05 1.77 19.47 1.77C8.49 1.77 0 7.84 0 21.45L0 24.12L0 24.13L0 48.56L0 53.65L13.48 53.65L13.48 48.56L13.48 24.13C13.48 18.21 16.56 16.11 20.64 16.11C24.63 16.11 27.79 18.21 27.79 24.12L27.79 53.65L41.28 53.65L41.28 48.56L41.28 24.13C41.28 18.21 44.44 16.11 48.43 16.11C49.86 16.11 51.15 16.39 52.24 16.98C53.56 12.58 57.63 9.37 62.46 9.37C63.82 9.37 65.12 9.64 66.32 10.11M55.59 28.19L55.59 48.56L55.59 53.65L69.07 53.65L69.07 48.56L69.07 28.39C67.25 29.83 64.96 30.7 62.46 30.7C59.84 30.7 57.44 29.75 55.59 28.19"/><path fill="#FF0000" d="M62.46 13.01C58.58 13.01 55.43 16.15 55.43 20.03C55.43 23.91 58.58 27.06 62.46 27.06C66.34 27.06 69.48 23.91 69.48 20.03C69.48 16.15 66.34 13.01 62.46 13.01"/></svg>